<?xml version="1.0" standalone="no"?>
<!DOCTYPE svg PUBLIC "-//W3C//DTD SVG 20010904//EN"
 "http://www.w3.org/TR/2001/REC-SVG-20010904/DTD/svg10.dtd">
<svg version="1.0" xmlns="http://www.w3.org/2000/svg"
 width="72.000000pt" height="72.000000pt" viewBox="0 0 72.000000 72.000000"
 preserveAspectRatio="xMidYMid meet">
<metadata>
Created by potrace 1.14, written by Peter Selinger 2001-2017
</metadata>
<g transform="translate(0.000000,72.000000) scale(0.100000,-0.100000)"
fill="#000000" stroke="none">
<path d="M345 506 c-11 -7 -51 -29 -89 -49 l-69 -36 37 -15 c36 -15 36 -15 36
-74 l0 -60 62 -32 c51 -27 65 -30 81 -21 10 7 36 21 58 33 39 20 39 21 39 79
0 47 4 60 19 69 36 19 41 12 41 -55 0 -37 4 -65 10 -65 6 0 10 29 10 68 l0 67
-95 53 c-104 57 -111 59 -140 38z"/>
</g>
</svg>
